<svg xmlns="http://www.w3.org/2000/svg" viewBox="0 0 360 360"><defs><style>.a{fill:#1c1c1c;}.b{fill:#fff;}.c{fill:#08303f;}.d{fill:#0b3f59;}.e{fill:#843642;}.f{fill:#de525f;}.g{fill:#08c1af;}.h{fill:#00ffec;}.i{fill:#00b7ff;}.j{fill:#176577;}.k{fill:#1a81a0;}.l{fill:none;stroke:#d8d8d8;stroke-miterlimit:10;stroke-width:2px;}</style></defs><title>buy-records-svg</title><circle class="a" cx="272.82" cy="118.62" r="86.16"/><circle class="b" cx="272.82" cy="118.62" r="39.63"/><ellipse class="a" cx="272.81" cy="118.59" rx="4.27" ry="4.26" transform="translate(42.62 307.02) rotate(-62.8)"/><path class="b" d="M283.73,72.39A48.84,48.84,0,0,1,313.65,94.7a1.5,1.5,0,0,0,2.6-1.51A51.94,51.94,0,0,0,284.53,69.5c-1.88-.48-2.68,2.42-.8,2.89Z"/><path class="b" d="M276.11,61.89a64.8,64.8,0,0,1,42.15,24.48,62.64,62.64,0,0,1,7.34,12.12c.81,1.76,3.39.23,2.59-1.51A67.87,67.87,0,0,0,290.45,62.4a64.91,64.91,0,0,0-14.34-3.51c-.81-.11-1.49.76-1.5,1.5a1.54,1.54,0,0,0,1.5,1.5Z"/><path class="b" d="M261.66,162.34A48.88,48.88,0,0,1,231.9,139.8a1.5,1.5,0,0,0-2.59,1.52,51.92,51.92,0,0,0,31.55,23.91c1.87.48,2.67-2.41.8-2.89Z"/><path class="b" d="M269.6,173a65,65,0,0,1-42.36-24.84A62.73,62.73,0,0,1,220,135.93c-.8-1.76-3.38-.24-2.59,1.51a67.85,67.85,0,0,0,37.15,34.71,63.39,63.39,0,0,0,14.26,3.69,1.56,1.56,0,0,0,1.85-1.05,1.51,1.51,0,0,0-1-1.84Z"/><rect class="c" x="25.6" y="46.64" width="235.21" height="235.21" transform="translate(-24.44 25.03) rotate(-9.21)"/><rect class="d" x="26.45" y="46.3" width="235.21" height="235.21" transform="translate(-24.37 25.17) rotate(-9.21)"/><rect class="e" x="25.68" y="70.77" width="206.74" height="206.74" transform="translate(-43.35 42.78) rotate(-16.15)"/><rect class="f" x="26.7" y="70.26" width="206.74" height="206.74" transform="translate(-43.17 43.04) rotate(-16.15)"/><rect class="g" x="109.61" y="115.63" width="135.62" height="138.12" transform="translate(29.09 -24.08) rotate(8.46)"/><rect class="h" x="110.46" y="115.8" width="135.62" height="138.12" transform="translate(29.12 -24.21) rotate(8.46)"/><circle class="a" cx="224.71" cy="227.71" r="76.92"/><circle class="i" cx="224.71" cy="227.71" r="35.38"/><ellipse class="a" cx="224.72" cy="227.7" rx="3.81" ry="3.8"/><path class="b" d="M265.73,217.64a43.49,43.49,0,0,1-5.54,32.7c-1,1.64,1.57,3.15,2.59,1.52a46.57,46.57,0,0,0,5.84-35c-.43-1.88-3.33-1.09-2.89.8Z"/><path class="b" d="M270.84,207a57.74,57.74,0,0,1-2,43.25,55.35,55.35,0,0,1-6.58,10.86c-1.17,1.5.93,3.64,2.12,2.12a60.72,60.72,0,0,0,12.32-44.09,58.62,58.62,0,0,0-3-12.94c-.65-1.8-3.55-1-2.89.8Z"/><path class="b" d="M185.57,236.57a43.53,43.53,0,0,1,5.78-32.66c1-1.64-1.56-3.14-2.59-1.52a46.56,46.56,0,0,0-6.08,35c.42,1.88,3.32,1.09,2.89-.8Z"/><path class="b" d="M180.39,247.21A57.78,57.78,0,0,1,182.67,204a54.8,54.8,0,0,1,6.66-10.8c1.19-1.5-.92-3.64-2.12-2.13a60.74,60.74,0,0,0-12.63,44,58.76,58.76,0,0,0,2.92,13c.63,1.81,3.53,1,2.89-.8Z"/><rect class="j" x="17.93" y="134.68" width="193.94" height="196.7" transform="translate(-27.46 15.69) rotate(-6.98)"/><rect class="k" x="20.82" y="134.45" width="191.14" height="194.66" transform="translate(-27.3 15.86) rotate(-6.98)"/><rect class="l" x="34.92" y="150.75" width="164.02" height="164.02" rx="9.2" transform="translate(-29.12 17.08) rotate(-7.43)"/></svg>