<svg xmlns="http://www.w3.org/2000/svg" viewBox="0 0 360 360"><defs><style>.a{fill:#070707;opacity:0.18;}.b{fill:#0e516b;}.c{fill:#088ab2;}.d{fill:#09cebb;}.e{fill:#00ffec;}.f{fill:#89d3d3;}.g{fill:#6daaa9;}.h{fill:#72b7b3;}.i{fill:#7ecec8;}.j{fill:#b23f4d;}.k{fill:#b54054;}.l{fill:#de525f;}.m{fill:#ad4758;}.n{fill:#22b4bf;}.o{fill:#2dd2d6;}.p{fill:#4faaa5;}</style></defs><title>quality-machines-svg</title><path class="a" d="M8.05,186.29s-17.21,8.23,3.69,20S197.26,312.1,197.26,312.1s15.68,5.23,26.13,0S354,237.63,354,237.63s10.45-13.06-1.31-17C339,230.45,228,295.77,228,295.77s-22.21,9.15-32.66,0C180.93,287.93,8.05,186.29,8.05,186.29Z"/><path class="b" d="M3.25,136.38v43.11S1.94,186,17.57,193.86s177,101.91,177,101.91,13,7.84,32.54,0,125-74.47,125-74.47,5.21-1.31,5.21-17V167.73s-1.31,10.46-24.74,22.21c-24.73,14.38-100.23,58.8-100.23,58.8S215.43,261.8,192,250,17.57,149.44,17.57,149.44,8.45,144.22,3.25,136.38Z"/><path class="c" d="M192.59,252.63s14.38,11.91,40.53-1.32,113.53-66.84,113.53-66.84,26.34-15.2-5-31.08C307.63,132.22,163.83,51.5,163.83,51.5s-20.91-6.62-28.76-1.33S10.88,124.28,10.88,124.28s-18.2,7.41-1.26,20.24S192.59,252.63,192.59,252.63Z"/><path class="d" d="M139,52.11v8.61s1.5,3.81,10.12,4.31c12.32.08,12.65-5.75,12.65-5.75V52.11Z"/><ellipse class="e" cx="150.23" cy="52.76" rx="11.18" ry="7.19"/><path class="d" d="M200.11,218.82v8.61s1.49,3.81,10.12,4.3c12.31.09,12.65-5.74,12.65-5.74v-7.17Z"/><ellipse class="e" cx="211.37" cy="219.47" rx="11.18" ry="7.19"/><ellipse class="f" cx="150.1" cy="131.34" rx="98.55" ry="58.5"/><ellipse class="g" cx="150.43" cy="130.67" rx="60.2" ry="35.73"/><ellipse class="h" cx="151.76" cy="130.67" rx="43.71" ry="25.95"/><ellipse class="i" cx="152.76" cy="130.67" rx="24.43" ry="14.5"/><polygon class="j" points="265.55 121.81 206.38 89.46 164.28 86.58 163.84 81.04 206.83 84.58 269.76 118.04 267.99 123.36 265.55 121.81"/><polygon class="d" points="155.42 90.9 157.32 95.61 159.57 90.29 155.42 90.9"/><path class="d" d="M149.77,81.18V88s1,3,6.94,3.42c8.45.06,8.68-4.56,8.68-4.56V81.18Z"/><ellipse class="e" cx="157.49" cy="81.7" rx="7.67" ry="5.71"/><path class="d" d="M259.57,136.28v15s3.15,6.63,21.35,7.5c26,.14,26.68-10,26.68-10v-12.5Z"/><ellipse class="e" cx="283.55" cy="137.54" rx="23.8" ry="12.63"/><path class="k" d="M264.94,124.88V140s2.62,6.68,17.75,7.56c21.62.14,22.2-10.08,22.2-10.08V124.88Z"/><ellipse class="l" cx="284.89" cy="126.14" rx="19.8" ry="12.73"/><polygon class="l" points="217.69 203.36 245.16 219.31 263.56 208.45 236.74 192.28 217.69 203.36"/><polygon class="m" points="217.69 203.36 217.69 205.96 244.83 221.42 263.28 211.11 263.28 208.45 245.16 219.31 217.69 203.36"/><polygon class="l" points="175.64 206.49 190.5 215.13 200.46 209.25 185.95 200.5 175.64 206.49"/><polygon class="m" points="175.64 206.49 175.64 207.9 190.32 216.26 200.31 210.69 200.31 209.25 190.5 215.13 175.64 206.49"/><polygon class="l" points="160.68 216.3 175.55 224.93 185.5 219.06 170.99 210.3 160.68 216.3"/><polygon class="m" points="160.68 216.3 160.68 217.71 175.37 226.07 185.35 220.5 185.35 219.06 175.55 224.93 160.68 216.3"/><polygon class="n" points="261.45 197.32 320.45 164.25 332.42 171.06 273.92 205.63 261.45 197.32"/><polygon class="o" points="255.47 194 320.45 157.1 337.57 167.24 332.42 171.06 320.45 164.25 261.45 197.32 255.47 194"/><path class="f" d="M293.69,170.06l21.94,13.3a5.82,5.82,0,0,0,4.49-1.5c2.24-1.91,8.22-9.06,2.66-11.8s-20.45-12-20.45-12S295.85,157.27,293.69,170.06Z"/><path class="p" d="M315.63,183.36s-5.15-13.3,7.15-13.3c5.48,4.49-.25,9.31-2.66,11.8S315.63,183.36,315.63,183.36Z"/></svg>