<svg xmlns="http://www.w3.org/2000/svg" viewBox="0 0 360 360"><defs><style>.a{fill:#0b3f59;}.b{fill:#0d4556;}.c{fill:#0b4456;}.d{fill:#068ab2;}.e{fill:#a2c68d;}.f{fill:#0e516b;}.g{fill:#00b7ff;}.h{fill:#0b424f;}.i{fill:#e6ac6d;}.j{fill:#c4915f;}.k{fill:#0a353f;}.l{fill:#de525f;}</style></defs><title>sell-records-svg</title><polygon class="a" points="160 162.14 223.51 245.36 112.84 360 -0.16 360 -0.16 278 160 162.14"/><polygon class="b" points="193.51 36.71 183.74 51.92 261.92 206.12 264.1 207.2 267.35 209.37 270.61 207.2 272.78 213.72 279.3 209.37 282.56 210.46 193.51 36.71"/><polygon class="c" points="269.91 211.57 341.64 168.6 274.7 1.86 200.24 29.13 269.91 211.57"/><path class="d" d="M288.08,191l31.59-17.54s-3.47-19.08,8-23.36L278.3,24.81s-16.67,1.52-18.89-8.62c-8,2.45-35.25,10.54-35.25,10.54s6.69,9.52-5.24,18.15c3.43,9.17,52.44,137.68,52.44,137.68S282.82,178.28,288.08,191Z"/><circle class="e" cx="254.97" cy="52.58" r="10.4"/><circle class="e" cx="293.44" cy="145.84" r="10.4"/><circle class="e" cx="273.18" cy="98.55" r="21.34"/><polygon class="f" points="282.16 211 348.92 160.66 264.65 1.97 193.51 36.99 282.16 211"/><path class="d" d="M298,188.57l29.55-20.8s-5.47-18.6,5.47-24.08L270.67,24.4s-16.42,3.28-19.7-6.57C243.31,21.12,217,32.06,217,32.06s7.66,8.76-3.28,18.61C218.14,59.42,280.52,182,280.52,182S291.46,176.53,298,188.57Z"/><circle class="g" cx="250.42" cy="54.5" r="10.4"/><circle class="g" cx="298.58" cy="143.15" r="10.4"/><circle class="g" cx="273.4" cy="98.27" r="21.34"/><path class="h" d="M271.33,206.27q-2.13-4.7-4.41-9.31c-.29-.58-1.15-.07-.87.5q2.29,4.62,4.42,9.31c.26.59,1.13.08.86-.5Z"/><path class="h" d="M189.32,45.09a28.28,28.28,0,0,1,4.24,5.72.5.5,0,0,0,.87-.5A29.76,29.76,0,0,0,190,44.38c-.44-.46-1.15.25-.7.71Z"/><path class="h" d="M192.17,39.49A57.75,57.75,0,0,0,196.52,48c.33.55,1.2.05.86-.5a57.17,57.17,0,0,1-4.25-8.32c-.24-.59-1.21-.33-1,.27Z"/><path class="h" d="M186.72,48.62a9.06,9.06,0,0,0,2.18,2.23.51.51,0,0,0,.69-.18.54.54,0,0,0-.18-.69.71.71,0,0,1-.14-.1l-.07-.05h0l-.27-.22-.51-.48c-.16-.17-.32-.34-.46-.51l-.11-.14s0,0,0,0l0-.07-.22-.3a.5.5,0,1,0-.86.51Z"/><path class="h" d="M279.25,208.63a41.34,41.34,0,0,0-3.61-8.76c-.31-.57-1.17-.06-.86.5a41,41,0,0,1,3.51,8.53.5.5,0,0,0,1-.27Z"/><path class="i" d="M194.77,81.84l44.78-19.61s13.11,4.36,2.18,22.88c-14.19,13.07-21.84,16.34-21.84,16.34s9.83,31.59,9.83,35.94,29.49,61,29.49,61-25.12,10.9-30.58,15.25-14.2,22.88-14.2,22.88l-50.24-68.63s8.74-7.62,12-15.25S194.77,81.84,194.77,81.84Z"/><path class="i" d="M284.73,67.12s-20.63-5.43-12-20.63l22.81-13s15.2-1.09,14.11,17.37a13.79,13.79,0,0,1-2.17,6.52l7.6-3.26s11.95,0,13,16.29c-2.17,8.68-6.51,10.86-6.51,10.86s4.34,0,9.77,6.51S332.51,104,332.51,104l-4.35,5.43s6.52,2.17,8.69,6.51a45.67,45.67,0,0,1,3.26,9.78s-1.09,8.69-4.35,10.86l-2.17-4.35s-7.6,5.43-10.86,5.43c-5.43,0-19.54-9.77-11.94-19.54,0,0,6.51-5.43,10.86-6.52l-2.17-2.17-12,6.51s-15.2-4.34-13-18.46c0,0,1.09-4.34,14.12-10.85l-1.09-2.18L295.59,91s-14.12,2.17-15.21-17.38c5.43-6.51,17.38-11.94,17.38-11.94l-1.09-1.09Z"/><path class="j" d="M227,132.6c5.44,21.94,22,38.59,28.91,59.86l6.15-6.15c-8.83-3.17-15.4-11.61-20.08-19.41a69.19,69.19,0,0,1-9.37-27.25L222.79,141c4.8,13.89,10,27.89,20.54,38.51,4.57,4.59,11.38-2.32,7.08-7.07-5.37-5.92-10.8-11.9-14.68-18.95-1.8-3.27-4.07-7.61-4-11.42,0-4.26,3.45-6.7,6.61-9,5.15-3.7.33-12.3-5-8.63-10.62,7.26-14.11,20.78-10,32.76,4.94,14.27,17.23,23.25,29.19,31.47,5.31,3.65,10.32-5,5-8.64-8.86-6.09-18.28-12.52-23.26-22.39-4-8-4-19,4-24.57l-5-8.63c-4.15,3-8.37,6.19-10.38,11.08-2.12,5.15-1,10.73.92,15.77,4.07,10.9,11.85,19.7,19.55,28.2l7.08-7.07c-9.32-9.37-13.75-21.86-18-34.1-1.71-4.95-10.54-4.6-9.82,1.33,2.62,21.78,14.66,48.35,36.79,56.3,3.56,1.28,7.28-2.68,6.15-6.15-6.91-21.27-23.5-38.06-28.91-59.86-1.55-6.24-11.2-3.6-9.64,2.66Z"/><path class="k" d="M266.18,190.48C262.81,185,260.91,179,258.64,173a145.5,145.5,0,0,0-8.36-17.4c-6.76-12.56-10.75-26.53-15.46-39.95-2.11-6-11.78-3.43-9.64,2.66,4.8,13.68,8.87,28,15.66,40.82,3.15,6,6.4,11.76,8.75,18.13s4.44,12.54,8,18.25c3.37,5.47,12,.45,8.63-5.05Z"/><path class="f" d="M230.26,108.4a148.83,148.83,0,0,1,15.45,31.29c4.51,12.71,7.4,26.27,15,37.43,3.71,5.47,8.65,10.74,9,17.34"/><path class="f" d="M229.15,117.54c5.79,0,5.8-9,0-9s-5.8,9,0,9Z"/><path class="c" d="M226.27,116.85c4.42,5.76,8.89,11.58,11.94,18.21,3.25,7,4.92,14.7,7.07,22.1,4.15,14.29,11.12,27.23,18.44,40.11,2.86,5,10.64.5,7.77-4.55-7.6-13.37-14.37-26.56-18.52-41.44-1.89-6.76-3.74-13.52-6.62-19.94-3.12-7-7.69-13-12.31-19-3.47-4.53-11.29,0-7.77,4.55Z"/><path class="b" d="M230.62,115.61c7.26,19.37,20,36.69,24.5,56.88L239.45,129"/><circle class="l" cx="189.21" cy="245.34" r="9.16"/><circle class="l" cx="170.55" cy="263.32" r="9.16"/></svg>